/* XPM */
static char *_d8055b8d6624defdf0a22a462885e00Rux3T0LdMmvIiUix[] = {
/* columns rows colors chars-per-pixel */
"64 64 243 2 ",
"   c #020202",
".  c #0C0102",
"X  c #000A02",
"o  c #01030B",
"O  c #0B020A",
"+  c #010C0D",
"@  c #0B0B0B",
"#  c #090900",
"$  c #150101",
"%  c #1C0101",
"&  c #14010C",
"*  c #170907",
"=  c #001104",
"-  c #02120C",
";  c #0A1308",
":  c #151606",
">  c #030D11",
",  c #0A0616",
"<  c #130012",
"1  c #190912",
"2  c #011314",
"3  c #041A1A",
"4  c #121212",
"5  c #1B1B1B",
"6  c #1B1612",
"7  c #250200",
"8  c #23030D",
"9  c #250C0F",
"0  c #380802",
"q  c #280611",
"w  c #25161B",
"e  c #2B1706",
"r  c #172215",
"t  c #072311",
"y  c #25291E",
"u  c #001E24",
"i  c #261922",
"p  c #242424",
"a  c #2D2D2D",
"s  c #2A2429",
"d  c #243628",
"f  c #333333",
"g  c #3D3D3D",
"h  c #3C3337",
"j  c #2B282D",
"k  c #480506",
"l  c #570505",
"z  c #630403",
"x  c #6E1904",
"c  c #344532",
"v  c #59443B",
"b  c #464739",
"n  c #373E46",
"m  c #433D49",
"M  c #3A504C",
"N  c #3B6648",
"B  c #434343",
"V  c #4B4B4B",
"C  c #44494B",
"Z  c #584848",
"A  c #4B5656",
"S  c #545454",
"D  c #5B5B5B",
"F  c #525C59",
"G  c #4B544D",
"H  c #62545A",
"J  c #4D6A59",
"K  c #56655B",
"L  c #4C6856",
"P  c #5A6E68",
"I  c #626362",
"U  c #6B6B6B",
"Y  c #6C7873",
"T  c #777979",
"R  c #71706E",
"E  c #7E526B",
"W  c #87121D",
"Q  c #A6030A",
"!  c #BA0705",
"~  c #BC0C17",
"^  c #BF1B1C",
"/  c #BC1728",
"(  c #B01323",
")  c #941E29",
"_  c #C2000B",
"`  c #DB0505",
"'  c #C4071A",
"]  c #D80716",
"[  c #DA151D",
"{  c #D11700",
"}  c #E40201",
"|  c #EC0201",
" . c #EC0C01",
".. c #EC010C",
"X. c #E8060A",
"o. c #F40100",
"O. c #FC0101",
"+. c #F40B01",
"@. c #FE0A02",
"#. c #F4030B",
"$. c #FD020C",
"%. c #FE0B0C",
"&. c #F30A0C",
"*. c #E91309",
"=. c #FB1307",
"-. c #EB0211",
";. c #E60517",
":. c #F40110",
">. c #FE0213",
",. c #FE0C13",
"<. c #FD041C",
"1. c #FE0D1A",
"2. c #F20815",
"3. c #E81816",
"4. c #FA1118",
"5. c #DC1824",
"6. c #FF0A25",
"7. c #ED1936",
"8. c #F9193A",
"9. c #F10E22",
"0. c #D72925",
"q. c #D73736",
"w. c #F8202E",
"e. c #EB2B31",
"r. c #D1251B",
"t. c #DF403A",
"y. c #E8483C",
"u. c #E83848",
"i. c #F33B48",
"p. c #F53752",
"a. c #82797E",
"s. c #B56E77",
"d. c #A4515A",
"f. c #EC4A56",
"g. c #E94346",
"h. c #F76A6C",
"j. c #F6737C",
"k. c #F37170",
"l. c #DA4F5C",
"z. c #76847E",
"x. c #6E8478",
"c. c #82817D",
"v. c #F58478",
"b. c #887F81",
"n. c #7C8982",
"m. c #7D9289",
"M. c #838382",
"N. c #8C8C8D",
"B. c #868987",
"V. c #948388",
"C. c #87928D",
"Z. c #93918D",
"A. c #899291",
"S. c #949494",
"D. c #9B9B9B",
"F. c #959898",
"G. c #8F8D90",
"H. c #91A995",
"J. c #989FA5",
"K. c #A5A6A6",
"L. c #BCBCBC",
"P. c gray71",
"I. c #ABAFAF",
"U. c #AB9B9C",
"Y. c #DB8B90",
"T. c #F29A8A",
"R. c #FA9A99",
"E. c #EE9C91",
"W. c #EAA69A",
"Q. c #FBA698",
"!. c #EBA890",
"~. c #FB9AA6",
"^. c #EF9CA6",
"/. c #D3BBAC",
"(. c #E7ABA3",
"). c #FCABA9",
"_. c #F9B4AB",
"`. c #FDB9B6",
"'. c #EBB4AA",
"]. c #B9C6BF",
"[. c #F8C8B9",
"{. c #EDCAB6",
"}. c #BABDC2",
"|. c #C9BBC9",
" X c #BDCCCA",
".X c #C5C5C5",
"XX c #C4CBCD",
"oX c #CCCCCC",
"OX c #CCC7C5",
"+X c #D0C8C6",
"@X c #C9D7D8",
"#X c #D4D4D4",
"$X c #DBDCDB",
"%X c #D8D8D9",
"&X c #D2D0CE",
"*X c #FCD6C9",
"=X c #E4DADE",
"-X c #E6D6DA",
";X c #F4CDCC",
":X c #D8E5DD",
">X c #C7E1D8",
",X c #E7E6DB",
"<X c #FAE6DA",
"1X c #FBF8DA",
"2X c #E3F5DF",
"3X c #D5D8E3",
"4X c #E5DCE4",
"5X c #F8DDE6",
"6X c #D9E6E6",
"7X c #DCFFFA",
"8X c #DDF2EE",
"9X c #E3E3E3",
"0X c #E3E5EC",
"qX c #EBEBEB",
"wX c #E9E8E7",
"eX c #FEEAED",
"rX c #F8E7E7",
"tX c #EBFDED",
"yX c #E8F5EA",
"uX c #FFFCE4",
"iX c #FEF3EC",
"pX c #F1FEEE",
"aX c #FEFBED",
"sX c #F5F6E7",
"dX c #FEEDF4",
"fX c #FEEDFC",
"gX c #F9EAF7",
"hX c #ECFCF3",
"jX c #E4FFFE",
"kX c #ECFEFD",
"lX c #E8F8F2",
"zX c #F4F4F4",
"xX c #FEF4F5",
"cX c #F2FDF4",
"vX c #FDFCF5",
"bX c #F3F5FA",
"nX c #FEF4FD",
"mX c #F4FEFD",
"MX c #FAFAFA",
"NX c #FFFFFF",
"BX c #FDFDFD",
"VX c #FDFDFD",
"CX c #E2EBF0",
/* pixels */
"NX#X$XNXoXqXzX.XNXoX9XzX.XzXzX.XMXoXwXNXoXqX9X#XNXOX5XnX}.mX6X@XVXXX6XkX.XvX-X-XnXoXzXwX#XzXoXqXzXoXzX9X#XNXoXqXqXoXNX$X$XNXoXzX",
"oXwXqXoXNX$X9XNXoXwXMX#XMX$X$XMXoXNXoX#XMX9X$XzXXXzX=X=XdX%XrXrX+XeX-XqXwX$XqX0X$XMX#XqXqXoXMX$X$XqX$XMXwX$XqX9X$XzX#XqXqX#XzX$X",
"qXqXwXqX9X9X$X$XzX9X$X$X9XqX$X$XqX#XqX9X=XqXNXqXbXbXVX:XhX:XyX2XyXcXyX$XcXbXCXCXMX$XNX#X9XzX#XqXqX#X$X9X$XqX9XwX9X9X9XwXwXwXwXwX",
"qX$X$XzX#XqXqX$XzX$X9XMX#XqXwXqXqX#XMX$XwXD.S D R V Y K A Y F P P G T D S I F I I S D.$XwXqX9X9XMX$XzX9X$XzX#X9XqX#XzX$X$XzX#XqX",
"oXzXqX.XNX$X#XMX#XqXqX.XNX9XoXzX$XzX#X$XNXV   @ .       < & < < , < & 8 .           g zXwXoXzX$XoXMXoXzXqXL.NX$X$XVXoXqXqXoXNX$X",
"NXoXzXNXoX$XNXoXNX.XqXqXoXqXNX#XNX#XwXzXwXV @   q   X X +   + + 3 2     X X   8 4   S NX$XzX9XqXMXoXMX#X$XMX$XqXqXoXNX$X$XNXoXzX",
"$XzXoX9XwXMX#XqX#XMXqXqX9XzX.X#X$X.XqX#XoXI     &   d r $ 7 7 $ . $ e $ t t @ 8   @ V 9X#X$X#XoX#X#XqXqXqXwXqX#X$XqX$XqXqX$XzX9X",
"#XqXqX#XzX$X$XzX$XqXwXoXNXoXD 4 @ 5 4 4 a       n kX:X<Xj.] ..&.,..._ k.eX8XkXj   @   5 4 4 p 5 @ V $XqXwX9X$XqX$XzX#XqXqX#XzX$X",
"MXqXoXNXL.zXqX#XyX,X-XfX XlXc X $   X -   O 6   b VXjXpXk.@.O.$.:.,.O.k.cXjXVXa   1 &   2 X X $ $ y kX6X@XVX+X,XzX#XzX#XwXMXoXzX",
".XqXqXL.NX#X$XzX+XqX=X9XmXcXa . .   4 o         c eXNXvXh.| O.%.>.%.} h.vXNXdXd         @ @ . . . h NX9X9X$XqXzX#XzXoXwXqX#XqX$X",
"qX$XwXNXoXzXzX$X5XwX].x.B.N.w O o s V.b.M.n.C.B.H.nXnXxXh. .+.O.O.+.} h.nXnXnXH.B.C.B.c.V.V.s     s V.U.Z.XXyX#XqXqXzXqXwXwX$X$X",
"zX$X9X9X$XwX$X$XfX0XH.X   . o > > C VXxXvXcXmXbXyXVXkXMXj.4.%.O.O.%.4.j.NXkXVXtXbXmXmXvXvXxXA + 3 > . .   H.yX3XqXoXqX%X$XzX#XzX",
"#XwXqXoXMX$X9XNXXXmXI.  w . X - X M BXsXBXhXVXVXxXnXjXkXj.-.o.O.o.O.:.k.kXjXVXMXVXcXcXvXvXBXC X X X 6   ; F.bX4X9XMX.XqXqXoXzX$X",
"qX9X$XNX#XzXzX.XlXhXD.. . . % $ 7 v vXyXVXbXNXNXnX5XiXuXh.<.$.,.@.$.6.h.<XvX5XnXNXVXMXcXhXaXv 7 7 $ # X - D.wXzX$X$XNX$X9XMX.XqX",
"qXwX#X$X9X9X$XS d p i + X $ ) Q Q d.aXmXVXnXVXzX;Xl.q.y.3.| o.O.O.| #.3.y.g.l.;XzXvXVXVXmXvXd.Q / W $ +   h s y S 9X#X$XqX#XMXwX",
"#XqXqX$XqX$X9Xp   . O > = $ ~ 6.>.f.rXkXNXfXVXhX;Xe.| O.@.+. .O.@.} @.@.O.o.5.*XtXvXnXMXmXrXf.<.6.Q %   4 . . X 5 qX9XqXqX.XNX#X",
"zX#X#XNXoXzXqX5 X   @ 2 o * ! $.&.p.vXnXlXcXcXjX*X2.+.O.$.>.O.O.O.O.$.,.@.} ;.*XkXxX7XhXNXxXp.>.O.Q   > o 3 . . p oXMXwX9XqX#XwX",
"$XqXzXL.NXoX#Xp . $ w M n G ~ &.{ 0./.`.{.[.).`.T.:.=.o.o.} O.+.o.O.| o.| =.4.E.'.).[.`.`.).0.{ O.r.v C m 3 .   5 zX#XqXqX#XNXqX",
"wX#X$XNX.XqXNXp   8 a.kXNXuXi.o.@.O.e...X.>.>.6.e.| @.O.O.o.O.o.@.%.%.O.O.@.| 0.<.>.$.#.:.6.o.@.O.g.uXNXNXP 1   a qXwX$X$XqX#X$X",
"qXwX9XqX9X9XwX@ - X P jXnXiX8.o.O.O.+.O.o.o.o.| #.o.O.O.$.%.O.| o.o.%.%.O.O.o.,.O.o.} }  .%.o.O.o.t.aXdXNXN O @ 4 oXMX9X$XNXoXzX",
"oXwXzXoXNX$X9XB X   Y kXnXiXu.[ ;.&.o.@.@.O.O.O.o.1.>.$.>.>.>.<.<.#.$.,.>.$.1.O.O.O.O.@.@.O.$.-.[ l.iXVXNXJ     a NX#XqXwXoXzX9X",
"qX9X9XL.B D I   O $ R mXxXmX).Q.`.v.o.| O.O.o.O.q.!.W.(.'.E.!.)._.Q.Q.(.W.W.!.r.O. .O.O.o.#.v.`.R.).mXnXxXJ   O @ g I B F.NXoXqX",
"qXwXwXM.  O 4   O $ R mXVXjXxXaXNX{.2. .%.$.&.o.q.1XBXmXhXaXcXNXMXpXaXhXVXBXuXq.o.*.$.%.O.3.{.kXiXnXjXVXdXK . O @ @     N.zXzX$X",
"$X$XzXN.        X X R cXnX7XnXzXVX[.$.o.O.O.&.o.7.xXnXgXkXvXmXnXVXmXnXmXfXfXiX8.O. .O.+.O.-.`.VXtXkX7XnXxXK . O     4   T qX9XwX",
"NX.XzXF.  4   f B h S.NXNXNXNXzXVX{.#.@.| w.u.7.s.rXBXzXVXNXbXNXVXxXNXNXcXvX5Xs.7.i.w.| @.@.{.VXNXNXzXNXzXT 5 a a   @   F.NXL.qX",
".XqXzXT @     qXNX9XzXNXzXzXNXNXnX`.o.@.&.T.1XuX5XxXBXyXNXNXMXNXNXMXNXVXhXBXvX*XuX1XE.3.+.} [.VXNXNXMXMXNXNXzXNX#X    4 D qXzXqX",
"NX#XqXS.    @ $XNXNXNXNXNXNXNXzXNX[.} o.*.W.pXcXvXBXvXBXNXNXMXVXmXmXNXNXmXcXBXvXmXcXW.] o...;XNXzXNXNXzXMXNXzXzXwX4   @ F.MXoXwX",
"wXwXzXM.      #XzXNXNXzXMXNXNXNXjX{.&.O.>.R.eXeXvXzXBXNXVXVXVXmXkXmXVXNXNXmXhXvXgXdX~.>.O.$.[.kXNXMXNXNXNXNXNXNX$X      M.zXwX9X",
"oXzXMXR       qXNXNXNXMXNXNXNXNXnX[.O.O.>.~.NXNXVXmXVXNXxXnXNXmXmXNXdXdXNXNXVXNXkXmX).#.O.O.[.mXNXMXMXNXMXzXMXNX9X  @ @ U qXbX$X",
"MX#XzXS.    4 oXzXMXNXNXNXNXMXNXVX[.O.O...R.kXkXNXVXmXVXVXNXNXmXVXVXVXxXNXNXNXNXjXhX!.} o.O.[.NXzXzXNXNXNXNXNXNX#X4     K.zXoXqX",
"#X$XzXN.      $XNXNXNXMXMXMXNXNXkX{. .@.4.Q.NXNXVXMXmXVXNXNXNXbXbXNXNXBXVXmXMXnXnXvXR.$.O.o.[.MXNXNXNXzXzXMXMXzXqX      B.qX9XqX",
"$XqXzXT       $XzXNXNXNXMXNXNXqXfX_.o.O.&.R.vXVXVXNXmXmXVXnXbXNXVXbXcXmXmXkXNXVXVXMXR.X.O.| [.MXzXzXMXNXNXNXMXNX$X  @   M.qXqX$X",
"vX@X4XJ.X $   0XjXxXpXcXkXBXt.+.4.*.} ,.<.~.kXnXdXVXmXVXmXvXeXmXkXiXxXhXmXVXkXfXVXtXE.-.,.` 9.8.=.g.BXmXNXvXvXjX%XO 1 o S.vX XwX",
"+XlXfXT X 1 - XXNXfXxXnXVXnXu.o.O.O.| @.#.Q.pXNXvXmXnXnXhXvXxXmXVXBXvXlXVXfX7XvXNXtXQ.#.@. .+.O.| u.nXVXnXxXfXmX&X2 O + n.-XyXrX",
"rXyXrXC.2   X rXNXvXcXkXkXrXu.o.O.O.o.O...Q.uXxXpXmXnXnXhXmXNXNXbXmXBXlXnXnXjXaXfXaXR.#.O.o.O.O.O.i.xXmXkXcXVXVX,XX ,   Y vX$X5X",
"4XCXeXn.    X Y.W.E.W.W.(.Q.e.%.,.,.&.&.-.h.(.^.(.vXVXnXkXmXnXNXVXmXVXkXVXnXpXW.~.(.h.-.#. .,.,.+.e.).(.'.'._.`.Y.X   + C.xXCX=X",
"@X:XvXB.. 1 $ ( $.O.$.$.$.1.| o.o.O.O.%.o.1.[ ;.p.iXmXbXmXmXqXNXVXbXNXmXmXNXrXu.-.3.%.o.$.O.O.o.| } ,.$.$.>.>.>./   O O A.rX%XzX",
"kX&XrXD.& O % ] @. .@. .} O.o.%. .O.+.=.O.O.o.o.8.iXjXkXVXVXxXNXNXyXvXVXmXmXiX8.o.o.O.O.=.+.O. .=.@.@.` ` +.} o.] . 6 . N.xX].kX",
"CX$XrXz.O   : X.O.} O. .O.$.$.>.%.$.$.#.$.$.,.,.f.uXjXnXVXmXvXvXBXmXvXnXnXhX,Xf.%.%.$.$.:.$.$.,.#.$.O.o. .%.+.@.;.: X . F.rX9X:X",
"3X=XuXm., X = ` ,.} $.$.$...x 0 k z l 0 k k 0 k l L A d.H L K Z Z J G Z E A N z k 0 k k 0 l z k 0 x ..$.$.$.} O.;.X t O n.xX=X6X",
"VX+X8Xm.8 X $ 9.o.=.o.O.O.] l                               @     @         @                   o z ` O.$.| 4.o.;.$ X % m.kX|.gX",
"|.dXkXz.8 X   ' O.$.o.O.$.5.l       @               4 @                 @ 4               @       z { O.O.o.%.O.' e X % z.>X-X0X",
"bX-X6XF.& X r ) _ ~ ~ ' ' ( 0 O @ @ D g h g B B S       a V B V V g S p       S B B g h g D @ @ % l ! ` ;.] ] ` W X 2 & A.mX=X0X",
"6XeXyXb.O 2 X 0 X X X   $ 7   u   B MXNXNXNXNXzXoX4     F.NXNXNXNXzXNXN.    4 oXbXNXNXNXNXMXB   u + $ . X = X = 0 = 2 & N.9X=X6X",
"@X$XvXM.O 2 X 9 .   +   $ % $ <   B MXMXzXzXNXNXqX4     S.NXzXMXMXqXNXB.    5 qXNXNXzXzXMXMXB   , < . O + > o o $ + o O B.qX9XkX",
"mX.XwXZ.  o +       + + X X = +   S zXNXNXNXNXNX#X      N.MXNXNXNXzXNXB.      #XNXNXNXNXNXzXS     @   . *   . $     +   B.BX.X6X",
"XXqXsXI.K.I.F.r % . o     ; z.I.D..XNXNXMXNXzXMXqX4     S.zXNXNXNXMXMXB.    4 wXMXzXNXMXNXNX.XD.H.n.X X X   . * 4 I.N.K.OX#XqX6X",
"0X9X,XwXlX4XdXy     o O   * /.vXMXNXNXzXMXNXNXNX$X      F.zXNXMXMXNXMXN.    @ $XNXNXNXMXzXNXNXMXVX|., o , o > o y xXqXlX,X,XqX0X",
"zXwX$XMX.XqXzX4   @         L.NXzXMXNXzXNXNXMXNX9X  @   N.NXNXMXMXNXMXN.  @   9XNXzXNXNXNXNXMXzXNXL.        @   5 .XNX#X9XqX9XwX",
"oX9XwX$XNX$X#XV 4 f 5       .XNXNXNXNXMXNXNXNXNX$Xp p 5 D.NXNXNXMXNXNXD.5 p a 9XNXMXNXNXMXNXNXNXNX.X      5 a 5 S NXL.qXMXP.NXoX",
"zXwX#XMXoXqXzXoXqXzXN.4     oXMXMXMXzXNXNXNXNXNXNXwXNXzXNXNXzXNXNXzXNXNXzXNXwXNXMXNXNXNXNXzXMXMXNX.X    4 D.qXwX#X#XNX#X$XNX.XzX",
"9XwXwX#XqX9X9XzX9XzXF.      #XNXNXNXMXNXNXNXNXMXzXMXNXNXNXNXMXNXNXMXNXNXNXNXMXzXMXNXzXNXNXNXNXNXNX.X      D.qXwXzXwX9X9XwXqX9XqX",
"$X#XqX$XqXwX$X9X#XMXK.@     L.MXzXMXNXNXMXzXNXNXNXNXzXzXMXNXMXMXMXMXNXMXzXzXNXNXNXNXqXNXNXNXMXMXzXP.@ @   K.zXwX$XzXoXwXqX#XzX$X",
"MX$X9XMXL.zXzX$X9XqXS.      U S.T K.MXNXNXMXNXMXzXNXNXNXNXNXNXNXNXNXNXNXNXNXNXqXNXNXMXNXNXNXK.M.F.U       F.qX9XwXoXNX#X$XNXoXqX",
"%XqXqXoXNX$X$X9XqXqXD.  @       @ V zXMXNXNXNXMXNXNXMXzXMXzXMXzXzXMXMXMXzXMXNXNXMXNXNXNXNXzXV @       @ @ K.MX$X$XMX$XqXqX$XzX$X",
"$XqX$XqXwXwXwXqX$XzXI.        4   B NXzXNXMXNXNXMXzXNXNXNXMXNXNXNXNXMXNXNXNXzXMXNXNXNXMXNXNXB     @       F.NX$X9XqX$X$XqXwX$XwX",
"zX9X9XzX#XwXqX#XNXwXB.5 4 5 4     V MXNXzXNXzXNXMXMXMXMXMXMXMXMXMXMXMXMXMXMXMXMXNX9XNXzXzXNXV   @   4 4   D.#XzXqX#XzX$X$XzX#XqX",
".XzXqX.XNX$X#XNX.XqXzXL.zX.Xa       a p 5 a p 5 p p p p p p p p p p p p p p p p 5 f p f p p 4     B L.oX$X#XNX#X#XNXL.zXzXL.NX#X",
"MX$X#XMXoXzXqXoXzX$XwXMXoXNXg   5 4                                                 @     @   4   V NXMX$XzX#X$XzX.XNX$X$XNX.XzX",
"wX$XqXwX9X$XqXwXqXwXqX$XqXqXa         @       @                                                   B qX$XqX#XzXqXwXwXwXwXwXwXwXwX",
"#XqXwX#XzX9X$XzX#X$X9X$XqX$XR S U D D D D U V D D D D D D D D D D D D D D D D D D S I D D D D U S T 9X$XqX$XqX#X$XMXoXqXqXoXMX$X",
"MXwX#XzX#XzXwXoXMXqX$XzXoXzXzXwXMXqXzXwXqXNX$XqXqXqXqXqXqXqXqXqXqXqXqXqXqXqXqXqXMX#XNX$X9XMXoXzXzXwXMXzX#XNX#XqXqXoXNX$X$XNXoXqX",
"$X$XzX$XqX#XqXqX.X9XwX#XNX$X$XqXoX$X9X#XwX$X$XqX9X9X9X9X9X9X9X9X9X9X9X9X9X9X9X9X$XwX#X9XzX$XzX#X$XqX#X#XzX.XNX#X$XzX#XqXqX#XzX$X",
"9XwX$XwX9XqX9XwXqX9X$XzXoXwX$XqX9XzX$X#XzX$XzXwXwXwXwXwX9X9X9X9XwXwXwXwX9X9X9X9X9XqXqX$X9X#XqXwX$XwX9XwXwX$XqXwXwX9XwX9X9XwX9XwX"
};
