/* XPM */
static char *_a03523df8b64405f4f0f9072582a00exQStbQpf2s0p5Yz1[] = {
/* columns rows colors chars-per-pixel */
"64 64 207 2 ",
"   c #000000",
".  c #141414",
"X  c #1C2301",
"o  c #262F05",
"O  c #283005",
"+  c gray15",
"@  c #006900",
"#  c #007800",
"$  c #3B7B07",
"%  c #2F7806",
"&  c #3A4023",
"*  c #417F08",
"=  c #4B5725",
"-  c #414336",
";  c #4E5631",
":  c #4A523E",
">  c #51573D",
",  c #53583F",
"<  c #545A40",
"1  c #5B5E4E",
"2  c #52564E",
"3  c #5A5D53",
"4  c #4C4C4C",
"5  c #5E6151",
"6  c #D70300",
"7  c #D80C01",
"8  c #D80905",
"9  c #DA1300",
"0  c #DB1B01",
"q  c #DA160D",
"w  c #D81617",
"e  c #DD2401",
"r  c #DE2C00",
"t  c #DC280B",
"y  c #DF3206",
"u  c #DC2717",
"i  c #DE331C",
"p  c #E03D02",
"a  c #DE2F30",
"s  c #DD362B",
"d  c #A6790C",
"f  c #E34804",
"g  c #E55406",
"h  c #E75C05",
"j  c #E75F08",
"k  c #E86306",
"l  c #EA6B05",
"z  c #EB7206",
"x  c #E34B2A",
"c  c #DD4848",
"v  c #DD5A58",
"b  c #E14A48",
"n  c #E2564D",
"m  c #E35C56",
"M  c #E77748",
"N  c #E4635E",
"B  c #E77B59",
"V  c #DF6764",
"C  c #E36A69",
"Z  c #E3726E",
"A  c #E57878",
"S  c #389C04",
"D  c #368A07",
"F  c #01AB00",
"G  c #0BAC01",
"H  c #14AF02",
"J  c #19B102",
"K  c #27B605",
"L  c #36BC07",
"P  c #38A404",
"I  c #4F8B0A",
"U  c #68850A",
"Y  c #74910F",
"T  c #679C0D",
"R  c #41A805",
"E  c #72A20E",
"W  c #3CC007",
"Q  c #45C209",
"!  c #4BC709",
"~  c #51C70A",
"^  c #53CA0A",
"/  c #5BC90C",
"(  c #63CD0C",
")  c #6ACF0D",
"_  c #63D10C",
"`  c #6DD30E",
"'  c #6DD90E",
"]  c #72D50E",
"[  c #79D50F",
"{  c #74DB0F",
"}  c #7ED810",
"|  c #7CD710",
" . c #57C157",
".. c #59C359",
"X. c #57C259",
"o. c #83A811",
"O. c #81A710",
"+. c #89B30E",
"@. c #EF8708",
"#. c #F18B0A",
"$. c #F49A0D",
"%. c #EF8B1F",
"&. c #F5A20C",
"*. c #F7AD0E",
"=. c #F8AF0E",
"-. c #FAB20F",
";. c #FAB211",
":. c #F7B119",
">. c #F6AC1A",
",. c #EC882A",
"<. c #ED8B32",
"1. c #EE933B",
"2. c #F29B2B",
"3. c #F7B937",
"4. c #F4AB2E",
"5. c #94C40F",
"6. c #95C410",
"7. c #81DC10",
"8. c #89DE11",
"9. c #9ED311",
"0. c #80DC0E",
"q. c #A1D612",
"w. c #8DE212",
"e. c #83E011",
"r. c #94E713",
"t. c #97EB13",
"y. c #8DE40F",
"u. c #ACE315",
"i. c #A5EE15",
"p. c #AEEA14",
"a. c #A7E013",
"s. c #AAF316",
"d. c #B6F617",
"f. c #BAF918",
"g. c #B9F815",
"h. c #B2ED15",
"j. c #918E72",
"k. c #EB9448",
"l. c #EC955A",
"z. c #E88355",
"x. c #F6BD47",
"c. c #F3B953",
"v. c #EFAA49",
"b. c #EB9C73",
"n. c #E9936C",
"m. c #F2B56C",
"M. c #8DD85F",
"N. c #95DC5E",
"B. c #9AE05F",
"V. c #A4E45F",
"C. c #ABE761",
"Z. c #F5C35C",
"A. c #F9C65B",
"S. c #F5C767",
"D. c #F6CC75",
"F. c #C3EC63",
"G. c #CDF966",
"H. c #E97E81",
"J. c #929294",
"K. c #959499",
"L. c #B1B1B1",
"P. c #E58A8C",
"I. c #E78787",
"U. c #EBB5AC",
"Y. c #E9B3AC",
"T. c #F5D389",
"R. c #F3D69B",
"E. c #F7D797",
"W. c #EFD08F",
"Q. c #F4DFB9",
"!. c #F2DBB1",
"~. c #F9E0AD",
"^. c #F7E2B8",
"/. c #CFCED1",
"(. c #D4D4D6",
"). c #DBDADC",
"_. c #D6D6D8",
"`. c #C3C3C3",
"'. c #EBCACA",
"]. c #EDD8D8",
"[. c #F4DEDB",
"{. c #F1D3D6",
"}. c #EFD1CD",
"|. c #F3E4C8",
" X c #F6E9D7",
".X c #FCF2DD",
"XX c #EEE4D1",
"oX c #DEDEE0",
"OX c #E0DFE1",
"+X c #E3E3E5",
"@X c #EDEDED",
"#X c #EBE4E4",
"$X c #F3EDE7",
"%X c #F1EDEC",
"&X c #F7E8E7",
"*X c #EEF1ED",
"=X c #F1F1EE",
"-X c #FBF3EC",
";X c #EFEFF0",
":X c #EEF1F1",
">X c #F3F3F3",
",X c #F9F4F4",
"<X c #F5F6F9",
"1X c #F8F9F9",
"2X c #F9F9F9",
"3X c #F8F8F7",
"4X c #F9EFF0",
/* pixels */
"2X@X2X@X3X@X3X@X3X@X>X>X>X>X@X3X@X3X@X2X@X2X@X2X@X2X@X2X@X3X@X3X@X>X;X>X%X;X>X@X3X@X3X@X3X@X3X@X3X@X3X@X3X@X3X@X3X@X>X>X>X>X@X3X",
">X>X>X>X>X>X>X>X>X>X>X>X>X>X>X>X>X>X>X>X>X>X>X>X>X%XP.].>X>X>X>X>X>X>X[.P.%X>X>X>X>X>X>X>X>X>X>X>X>X>X>X>X>X>X>X>X>X>X>X>X>X>X>X",
"@X2X@X3X@X3X@X3X@X3X>X>X>X@X3X@X3X@X3X@X3X@X2X@X3XY.M }.2X@X3X@X>X;X3X XM U.%X3X@X3X@X3X@X2X@X2X@X2X@X3X@X3X@X3X@X3X>X>X>X@X3X@X",
"3X@X3X@X3X@X3X>X3X>X>X>X>X>X>X>X@X>X@X3X@X3X@X3X@Xm %..X2X3X@X>X>X>X2X-X,.n %X>X3X@X3X@X3X@X3X@X3X@X3X@X3X@X3X@X3X>X>X>X>X>X;X3X",
"3X@X3X@X>X@X>X;X>X>X>X>X>X>X>X>X@X>X@X3X@X3X@X3X@Xn i [.>X3X@X>X>X>X3X[.i b %X>X3X@X3X@X3X@X3X@X3X@X3X@X>X@X3X>X>X>X>X>X>X>X>X3X",
"@X2X@X3X@X3X@X3X@X>X>X>X>X>X>X@X3X@X3X@X3X@X2X@X3Xl.t A ,X>X3X@X3X2X,XH.t k.=X3X@X3X@X3X@X2X@X<X@X2X@X3X@X3X@X3X@X>X>X>X>X>X3X@X",
"3X>X3X>X>X;X>X>X>X>X>X>X>X>X>X>X>X>X>X3X;X>X;X>X{.k.e x &X2X>X>X>X2X-Xx e 1.'.>X>X>X>X>X3X;X>X;X3X>X>X;X>X;X>X>X>X>X>X>X>X>X>X>X",
"2X@X3X@X3X@X3X@X>X>X>X>X>X>X@X>X@X3X@X3X@X3X@X1XA 7 9 2. X3X@X3X@X3X-X4.9 7 V %X3X@X3X@X3X@X3X@X3X@X3X@X3X@X3X@X>X@X>X>X>X>X@X3X",
"@X3X@X3X@X3X@X3X@X>X>X>X>X>X>X@X3X@X3X@X3X@X3X@Xm.r 6 y C 4X2X@X>X3XA t 6 e m.>X@X3X@X3X@X3X@X3X@X3X@X3X@X3X@X3X@X3X>X>X>X>X>X@X",
">X>X>X>X>X>X>X>X>X>X>X>X>X>X>X>X>X>X>X>X>X>X>X>Xb.e g 9 a 4X3X>X>X,Xb 7 g e l.>X>X>X>X>X>X>X>X>X>X>X>X>X>X>X>X>X>X>X>X>X>X>X>X>X",
"2X@X3X@X3X@X3X@X3X;X3X>X>X>X>X3X@X3X@X2X@X2X@X2XC 6 l 0 a 4X@X3X;X%Xb 0 z 7 v @X3X@X3X@X3X@X2X@X2X@X<X@X3X@X3X@X3X;X>X>X>X>X>X3X",
"@X3X@X3X@X3X@X3X;X>X>X>X>X>X>X>X3X@X3X@X3X@X3X;XC 6 7 6 a ].3X;X>X%Xc 6 7 6 m >X>X3X@X3X@X3X@X3X@X3X@X3X@X3X@X3X;X>X>X>X>X>X>X@X",
"@X>X@X3X@X>X@X>X>X>X>X>X>X>X>X%X>X>X3X@X3X@X>X:XZ k e 6 8 Z 3X>X3XI.q 6 e k N >X>X>X>X3X@X3X@X>X@X3X@X3X;X>X>X>X>X>X>X>X>X>X>X@X",
"2X@X2X@X3X@X3X@X3X;X3X>X>X>X@X>X@X3X@X3X@X2X@X2XZ f 0 7 p b %X3X2XN p 9 0 f v @X3X@X3X@X3X@X2X@X2X@X3X@X3X@X3X@X>X@X>X>X>X>X@X3X",
"@X3X>X3X;X>X@X>X>X>X>X>X>X>X>X>X>X;X>X>X>X>X3X>XI.t 6 0 z b &X>X&Xm l e 6 t A >X>X>X>X>X>X3X@X>X@X3X>X3X;X>X>X>X>X>X>X>X>X>X>X>X",
"@X3X@X3X@X3X@X>X@X>X>X>X>X>X>X@X>X@X3X@X3X@X3X@X&Xc.e 6 9 8 A :XA 8 9 6 e v.#X>X@X3X@X3X@X3X@X3X@X3X@X3X@X3X@X>X>X>X>X>X>X>X>X@X",
"2X@X3X@X3X@X3X@X3X>X>X>X>X>X>X>X@X3X@X3X@X<X@X3X@XM 0 j 7 6 V 1XA 6 7 g e M %X@X3X@X3X@X3X@X3X@X3X@X3X@X3X@X3X@X>X>X>X>X>X>X;X3X",
">X>X>X>X>X>X>X>X>X>X>X>X>X>X>X>X>X>X>X>X>X>X>X>X%XP.u g 7 9 n.>Xb.0 6 g u P.%X>X>X>X>X>X>X>X>X>X>X>X>X>X>X>X>X>X>X>X>X>X>X>X>X>X",
"@X3X@X3X@X3X@X3X@X3X>X>X>X>X>X@X3X@X3X@X3X@X3X@X2X#Xc 6 7 y m.].m.f 7 7 b $X>X3X@X3X@X3X@X3X@X3X@X3X@X3X@X3X@X3X@X3X>X>X>X>X>X@X",
"2X@X3X@X3X@X3X;X3X>X>X>X>X>X@X3X@X3X@X3X@X3X@X3X@X3X'.s z 9 q w q 7 z x '.>X>X;X3X@X3X@X3X@X3X@X3X@X3X@X3X@X3X@X3X>X>X>X>X>X@X3X",
"3X;X3X;X3X>X>X@X>X>X>X>X>X>X>X>X>X>X;X3X;X3X@X3X:X<X@XY.b.y f 6 f y b.U.%X>X>X>X>X>X3X;X3X;X>X@X3X;X3X;X3X>X>X>X>X>X>X>X>X>X>X>X",
"@X<X@X2X@X3X@X3X@X>X>X>X>X>X3X@X3X@X3X@X3X@X3X@X X!.-X:X{.B 1.p <.z.}.>X$X^.XX3X@X3X@X3X@X3X@X3X@X3X@X3X@X3X@X3X@X>X>X>X>X>X>X@X",
"3X@X3X@X>X@X3X>X>X>X>X>X>X>X>X>X>X>X;X3X@X3X@X3XD.:.Q.=X@X>XR.=.W.>X%X%X|.:.S.>X>X>X3X>X>X@X>X@X>X@X>X@X>X@X3X>X>X>X>X>X>X>X>X3X",
"3X@X3X@X3X@X3X@X3X;X>X>X>X>X>X>X@X3X@X3X@X3X@X<XD.k 2.A.#X<XR.=.W.<X$XS.4.k Z.=X3X@X3X@X3X@X3X@X3X@X3X@X3X@X3X@X3X;X>X>X>X>X>X3X",
"@X3X@X3X@X3X@X3X@X>X>X>X>X>X>X@X3X@X3X@X3X@X<X@XQ.<.l >.E.@XR.=.E.>XR.>.z ,.!.3X@X3X@X3X@X3X@X2X@X2X@X3X@X3X@X3X@X3X>X>X>X>X3X@X",
">X>X>X>X>X>X>X>X>X>X>X>X>X>X>X>X>X>X>X>X>X>X>X>X=Xc.h @.4.|.R.=.E.XX3.#.k c.=X>X>X>X>X>X>X>X>X>X>X>X>X>X>X>X>X>X>X>X>X>X>X>X>X>X",
"2X@X3X@X3X@X3X@X3X>X>X>X>X>X>X>X@X3X@X3X@X3X@X2X@XZ.&.f $.A.E.=.W.S.&.g &.A.=X@X3X@X3X@X3X@X3X@X3X@X3X@X3X@X3X@X>X@X>X>X>X>X@X3X",
"@X3X@X3X@X3X@X>X@X>X>X>X>X>X>X@X>X@X3X@X3X@X3X@X3X|.3.@.g c.E.=.E.S.h @.3.|.>X3X@X3X@X3X@X3X@X3X@X3X@X3X@X3X@X3X@X>X>X>X>X>X>X@X",
"@X3X>X3X;X>X;X>X>X>X>X>X>X>X>X>X>X>X>X>X>X>X3X>X3X$Xx.&.k <.Z.=.A.1.k &.x.$X>X>X>X>X>X3X>X>X;X3X;X3X>X3X>X>X>X>X>X>X>X>X>X>X>X@X",
"2X@X2X@X3X@X3X@X3X@X>X>X>X>X@X3X@X3X@X3X@X2X@X2X@X,XA.;.$.g =.;.=.h #.;.Z.$X>X@X3X@X3X@X3X@X<X@X3X@X2X@X3X@X3X@X3X@X>X>X>X>X@X3X",
"@X3X@X3X@X>X@X>X>X>X>X>X>X>X>X;X>X@X3X@X3X@X3X@X3X@X X3.=.*.=.;.=.*.*.3.XX>X>X>X;X>X@X3X@X3X@X3X@X3X@X3X@X3X;X>X>X>X>X>X>X>X>X@X",
"@X3X@X3X@X3X@X3X>X>X>X>X>X>X>X>X3X>X2X>X2X>X2X>X2X>X,X^.~.T.;.-.;.D.~.^.>X3X3X3X3X2X>X2X>X2X@X3X@X3X@X3X@X3X>X>X>X>X>X>X>X>X>X@X",
"2X@X3X@X3X@X3X@X3X;X3X>X>X>X>X3X@XL.J.K.J.K.J.K.J.K.J.K.J.j.d d d j.J.K.J.J.J.J.K.J.K.J.K.L.3X@X3X@X3X@X3X@X3X@X3X@X>X>X>X>X>X3X",
";X>X>X>X>X>X>X>X>X>X>X>X>X>X>X>X@X4 X o o o o o o o o o o o O O O o o o o o o o o o o o X - +X>X;X>X;X>X>X>X>X>X>X>X>X>X>X>X>X>X",
"@X3X@X3X@X3X@X3X@X>X>X>X>X>X>X@X>X1 +.u.u.u.u.u.u.u.u.u.u.u.u.u.u.u.u.u.u.u.u.u.u.u.u.u.5.> +X2X@X3X@X3X@X3X@X3X@X>X>X>X>X>X3X@X",
"2X@X3X@X3X@X3X@X>X;X>X>X>X>X@X>X@X3 S ~ ~ ~ ~ ~ ~ ~ ~ ~ ~ ~ ~ ~ ~ ~ / i.f.f.f.f.7.~ ~ ~ R : @X@X3X@X3X@X3X@X3X@X3X;X>X>X>X>X>X3X",
"3X>X>X>X>X>X>X>X>X>X>X>X>X>X>X>X@X2 S W J K K K F F F F F F F F K Q K r.f.f.d.f.^ F L Q P : @X>X>X>X>X>X>X>X>X>X>X>X>X>X>X>X>X>X",
"@X3X@X<X@X3X@X3X@X>X>X>X>X>X3X@X>X1 5.i./ } / ( F F F F F F F F ] d.Q r.f.f.d.f.^ F w.f.9.> OX2X@X2X@X2X@X3X@X3X@X3X>X>X>X>X>X@X",
"3X@X3X@X3X@X>X>X>X>X>X>X>X>X>X>X@X5 5.f.8./ [ J F F F F F F F F ] d.Q r.f.f.d.f.^ F w.f.9.< @X@X3X@X3X@X3X@X>X>X>X@X>X>X>X>X@X3X",
"3X@X3X@X3X@X3X>X3X>X>X>X>X>X>X3X@X5 5.d.] ) ` L F F F F F F F F ] d.Q r.f.f.d.f.^ F w.f.9.< @X@X3X@X3X@X3X@X>X>X>X>X>X>X>X>X>X3X",
"@X2X@X<X@X3X@X3X@X3X>X>X>X>X>X@X>X1 5.s.( [ ( / F F F F F F F F ] d.Q r.f.f.d.f.^ F r.f.9.> OX2X@X2X@X2X@X3X@X3X@X>X>X>X>X>X>X@X",
"3X;X>X>X>X>X>X>X>X>X>X>X>X>X>X>X@X1 5.f.w./ [ H F F F F F F F F ] d.Q r.f.f.d.f.^ F r.f.9., @X>X>X;X>X>X>X>X>X>X>X>X>X>X>X>X>X>X",
"2X@X3X@X3X@X3X@X3X>X>X>X>X>X;X>X@X5 5.s.( [ ( ^ F F F F F F F F ] d.Q r.f.f.d.f.^ F r.f.9.< @X@X3X@X3X@X3X@X3X@X>X;X>X>X>X>X>X3X",
"@X3X@X3X@X3X@X3X@X>X>X>X>X;X>X@X>X1 5.d.] ) ` L F F F F F F F F ] d.Q r.f.f.d.f.^ F w.f.9.> +X2X@X3X@X3X@X3X@X3X@X>X>X>X>X>X>X@X",
">X>X>X>X>X>X>X>X>X>X>X>X>X>X>X>X@X1 5.f.8./ [ J F F F F F F F F ] d.Q r.f.f.d.f.^ F w.f.9., +X>X>X>X>X>X>X>X>X>X>X>X>X>X>X>X>X>X",
"2X@X3X@X3X@X3X@X3X@X>X>X>X>X@X3X@X5 5.i./ } ( ( F F F F F F F F ] d.Q r.f.f.d.f.^ F w.f.9.< @X@X2X@X3X@X3X@X3X@X>X@X>X>X>X>X@X3X",
"@X3X@X3X@X3X@X3X@X>X>X>X>X>X>X>X>X1 5.d.7.( ] K F F F F F F F F ] d.Q r.f.f.d.f.^ F w.f.9.> +X3X@X3X@X3X@X3X@X>X>X>X>X>X>X>X>X@X",
"@X3X@X3X@X3X>X3X>X>X>X>X>X>X>X>X>X1 5.d.} ( ] K F F F F F F F F ] d.Q r.f.f.d.f.^ F w.f.9.> +X3X@X3X@X3X@X3X>X3X>X>X>X>X>X>X>X@X",
"2X@X2X@X3X@X3X@X3X@X>X>X>X>X@X3X@X5 5.i./ | ( ( F F F F F F F F ] d.Q r.f.f.d.f.^ G r.f.9.< @X@X2X@X2X@X3X@X3X@X>X@X>X>X>X>X@X3X",
"@X3X>X>X;X>X>X>X>X>X>X>X>X>X>X>X@X1 5.f.8./ [ H F F F F F F F F ] d.Q r.f.f.d.f.^ F r.f.9.> +X3X>X>X>X3X;X>X>X>X>X>X>X>X>X>X>X@X",
"@X3X@X3X@X3X@X3X>X>X>X>X>X>X>X>X>X1 5.s._ ' _ ! F F F F F F F F { f.Q t.f.f.f.f.^ G r.f.q.> +X1X@X3X@X3X@X3X@X3X>X3X>X>X>X>X3X@X",
"2X@X3X@X3X@X3X@X3X>X>X>X>X>X>X3X@X1 U E D I D I # # # # # # # # I O.D T o.o.o.o.D # T o.U > @X@X3X@X3X@X3X@X3X@X3X>X>X>X>X>X>X3X",
">X>X>X>X>X>X>X>X>X>X>X>X>X>X>X>X@X3 .                                                   . 4 @X>X>X>X>X>X>X>X>X>X>X>X>X>X>X>X>X>X",
"@X2X@X3X@X3X@X3X@X3X>X>X>X>X3X@X3X(.`.+                                               . L.).@X2X@X3X@X<X@X3X@X3X@X>X>X>X>X>X3X@X",
"<X@X3X@X3X@X3X@X>X@X>X>X>X>X>X>X@X3X).- U Y I $ $ @ @ @ @ @ @ $ Y % I Y Y Y I @ * Y U + _.>X3X@X3X@X3X@X3X@X3X@X>X@X>X>X>X>X@X3X",
"3X@X3X@X>X>X>X>X>X>X>X>X>X>X>X>X>X3X).; u.d.[ ] ! F F F F F F _ f.^ w.f.f.f.e.F ' f.h.= (.>X3X@X3X@X3X>X>X>X>X;X>X>X>X>X>X>X>X>X",
"@X3X@X3X@X3X@X3X@X3X>X>X>X@X>X@X3X@X+X; u.8.( ` G F F F F F F _ f.~ w.f.d.f.7.F ` f.p.= /.2X@X2X@X2X@X<X@X3X@X3X@X3X>X>X>X>X>X@X",
"3X@X>X@X>X@X>X;X>X>X>X>X>X>X@X>X>X3X).; a.d.[ ` Q F F F F F F _ f.~ w.f.f.f.7.F ` f.p.= (.>X3X@X>X@X>X@X>X>X>X>X>X>X>X>X>X>X@X>X",
"2X@X3X@X3X@X3X@X3X>X>X>X>X>X;X3X@X3X).; u.i.` ] L F F F F F F _ f.~ w.f.f.f.7.F ` f.p.= _.@X3X@X3X@X3X@X3X@X3X@X>X;X>X>X>X>X>X3X",
"@X2X@X3X@X3X@X3X@X3X>X>X>X>X>X@X3X@X+X; u.w.( ] H F F F F F F _ f.~ w.f.f.f.7.F ` f.p.= /.2X@X2X@X3X@X2X@X3X@X3X@X3X>X>X>X>X>X@X",
">X>X>X>X>X>X>X>X>X>X>X>X>X>X>X>X>X>XoX; a.f.[ ` ^ F F F F F F _ f.~ w.f.d.f.7.F ` f.p.= (.>X>X>X>X>X>X>X>X>X>X>X>X>X>X>X>X>X>X>X",
"2X@X3X@X3X@X3X@X3X@X>X>X>X>X>X3X@X3X).; u.r.( ` J F F F F F F ( g.~ 8.g.d.g.0.F ` g.p.= _.@X3X@X3X@X3X@X3X@X3X@X>X@X>X>X>X>X>X3X",
"@X3X@X3X@X3X@X>X@X>X>X>X>X>X>X>X3X@X@Xj.F.V.M.N.X. ... ... ...N.G.M.C.G.G.G.C...B.G.F.j.).2X@X3X@X3X@X3X@X3X@X3X;X3X>X>X>X>X>X@X",
"@X3X@X3X@X>X@X>X;X>X>X>X>X>X>X>X>X@X3X@X>X@X>X@X>X@X>X@X>X@X>X*X=X*X=X=X*X=X*X>X*X>X*X>X@X3X@X3X@X3X@X3X@X>X>X>X>X>X>X>X>X>X>X@X"
};
