/* XPM */
static char *_9bce76113da4619f3202d3dfdd3002d2gBfzUDmNuElh2WK[] = {
/* columns rows colors chars-per-pixel */
"64 64 256 2 ",
"   c #020202",
".  c #0B0101",
"X  c #010B01",
"o  c #0B0B02",
"O  c #02020C",
"+  c #0C030C",
"@  c #000A0B",
"#  c #0C080A",
"$  c #120100",
"%  c #1C0302",
"&  c #130B02",
"*  c #1B0D04",
"=  c #170A0B",
"-  c #021303",
";  c #0B1100",
":  c #04160A",
">  c #1C1302",
",  c #18120B",
"<  c #020312",
"1  c #000C12",
"2  c #090618",
"3  c #1A0B15",
"4  c #111315",
"5  c #2A0501",
"6  c #2E0C00",
"7  c #230904",
"8  c #3A0702",
"9  c #221400",
"0  c #241B02",
"q  c #2A1607",
"w  c #341102",
"e  c #3D1A03",
"r  c #3B1706",
"t  c #270B19",
"y  c #291418",
"u  c #321916",
"i  c #381718",
"p  c #330B15",
"a  c #352310",
"s  c #020924",
"d  c #031624",
"f  c #15122C",
"g  c #281327",
"h  c #2A2C26",
"j  c #292C2A",
"k  c #292726",
"l  c #372527",
"z  c #2F2F30",
"x  c #192116",
"c  c #470A04",
"v  c #431401",
"b  c #4A1400",
"n  c #441A02",
"m  c #4A1C05",
"M  c #471A0A",
"N  c #541502",
"B  c #561A06",
"V  c #4C0E17",
"C  c #481B15",
"Z  c #541816",
"A  c #530703",
"S  c #651C05",
"D  c #472500",
"F  c #522201",
"G  c #582405",
"H  c #5C3905",
"J  c #4A2111",
"K  c #512212",
"L  c #5D2918",
"P  c #622A0E",
"I  c #662A04",
"U  c #792B0B",
"Y  c #643308",
"T  c #743202",
"R  c #682D13",
"E  c #712314",
"W  c #72342C",
"Q  c #552F2E",
"!  c #584C37",
"~  c #48412F",
"^  c #413646",
"/  c #3A514E",
"(  c #3F4D5A",
")  c #424C59",
"_  c #4F5051",
"`  c #704E4C",
"'  c #717674",
"]  c #DC3A21",
"[  c #BD4B2A",
"{  c #BF4810",
"}  c #D94E01",
"|  c #CD540A",
" . c #C9570A",
".. c #DC5402",
"X. c #DD5B02",
"o. c #DF560E",
"O. c #DD5B0C",
"+. c #D35909",
"@. c #D84A15",
"#. c #CC5B14",
"$. c #CB5819",
"%. c #DB5D12",
"&. c #DD5A1B",
"*. c #D75716",
"=. c #C64B14",
"-. c #E44E01",
";. c #ED4E00",
":. c #E74905",
">. c #F54D03",
",. c #FD4D03",
"<. c #FF490F",
"1. c #E35502",
"2. c #EB5503",
"3. c #E25C03",
"4. c #EC5A04",
"5. c #E3550D",
"6. c #EB550B",
"7. c #E45A0C",
"8. c #EB590C",
"9. c #F25403",
"0. c #FD5201",
"q. c #F45B04",
"w. c #FB5C05",
"e. c #F2540D",
"r. c #FA540A",
"t. c #F35A09",
"y. c #FC5B0C",
"u. c #E94E16",
"i. c #F34D15",
"p. c #E35514",
"a. c #EB5612",
"s. c #E55A12",
"d. c #EA5B13",
"f. c #E4551A",
"g. c #EC551B",
"h. c #E25C1B",
"j. c #EB5B1B",
"k. c #F25C13",
"l. c #FC5C13",
"z. c #F15319",
"x. c #F45B1A",
"c. c #FD5B1A",
"v. c #F75516",
"b. c #DB6308",
"n. c #DB6518",
"m. c #C86A0F",
"M. c #E36205",
"N. c #E4620A",
"B. c #EA670A",
"V. c #F66505",
"C. c #E46114",
"Z. c #EB6414",
"A. c #EC621B",
"S. c #E6651B",
"D. c #F36314",
"F. c #F96615",
"G. c #F2711E",
"H. c #D34925",
"J. c #DD5B21",
"K. c #D45B25",
"L. c #CB5127",
"P. c #E55E23",
"I. c #EB5C23",
"U. c #EA5927",
"Y. c #FC5425",
"T. c #F35B23",
"R. c #F85928",
"E. c #E25D34",
"W. c #FE5B37",
"Q. c #F04E21",
"!. c #D86626",
"~. c #D56534",
"^. c #D36F2F",
"/. c #EB6123",
"(. c #E56428",
"). c #F16224",
"_. c #F86727",
"`. c #F46835",
"'. c #ED7A3B",
"]. c #EB7835",
"[. c #EA6938",
"{. c #BD7B61",
"}. c #82584A",
"|. c #D8774F",
" X c #E5754A",
".X c #F1724E",
"XX c #EF7260",
"oX c #DB8248",
"OX c #D88257",
"+X c #CA855C",
"@X c #E4874C",
"#X c #DD8763",
"$X c #CB8A64",
"%X c #F38560",
"&X c #E9E5B6",
"*X c #BDE2D1",
"=X c #BDF6ED",
"-X c #D8DADA",
";X c #D5D3D7",
":X c #EAD8D8",
">X c #FCDED6",
",X c #EEDBC8",
"<X c #DBE4DA",
"1X c #DCF3DD",
"2X c #D3E6D7",
"3X c #EAE7C6",
"4X c #FAE4CE",
"5X c #E3E6D9",
"6X c #E5E5D9",
"7X c #FFE9D5",
"8X c #FBF8DA",
"9X c #F0F4CE",
"0X c #D6DAE3",
"qX c #DADDE4",
"wX c #DCDFE8",
"eX c #D4DCEE",
"rX c #CFD8EF",
"tX c #E7DBE6",
"yX c #E7DAF8",
"uX c #F7DCE8",
"iX c #DEE1E6",
"pX c #DEE1EB",
"aX c #D8EAE7",
"sX c #D7F5EA",
"dX c #C8EEFA",
"fX c #D9E9F9",
"gX c #CAF6FC",
"hX c #DAF9FD",
"jX c #CFEAE8",
"kX c #E4EBE5",
"lX c #E2E5EB",
"zX c #E6E9EE",
"xX c #EDE8E9",
"cX c #F9E8E6",
"vX c #EAF9EC",
"bX c #F1F2EC",
"nX c #F8F6EA",
"mX c #E5E3F1",
"MX c #E6ECF7",
"NX c #EAEDF2",
"BX c #EAE9F9",
"VX c #F1EEFD",
"CX c #FEEEFD",
"ZX c #F8EAF3",
"AX c #EEF1F5",
"SX c #E4F4FE",
"DX c #ECF2FD",
"FX c #EDFCFE",
"GX c #E4FBFB",
"HX c #F2F3F5",
"JX c #FCF4F4",
"KX c #F5F6F9",
"LX c #FAF3FD",
"PX c #F6F9FB",
"IX c #F9F9FB",
"UX c #F7FAF4",
/* pixels */
"NXNXNXNXAXNXNXNXNXNXNXNXNXNXNXNXzXzXzXzXzXNXNXNXzXzXzXzXzXlXlXlXlXlXlXlXlXpXpXpXlXlXlXpXpXpXpXpXpXpXwXwXwXwXwXwX0X0X0X0X0X0X0X0X",
"NXNXNXNXAXNXAXNXNXNXNXNXNXNXNXNXzXzXzXzXzXNXNXNXzXzXzXlXzXzXlXlXlXlXlXlXlXlXpXpXlXpXlXpXpXpXpXpXpXpXwXwXwXwXwXwX0X0X0X0X0X0X0X0X",
"NXNXNXNXNXAXNXNXNXNXNXNXNXNXNXNXzXzXzXzXNXNXNXzXzXzXzXzXlXlXzXlXlXlXlXlXlXlXlXpXlXlXlXpXpXpXpXpXpXpXpXwXwXwXwXwX0X0X0X0X0X0X0X0X",
"AXAXAXAXAXAXAXAXNXNXNXNXNXNXNXNXzXNXNXNXNXNXNXzXzXzXzXzXzXzXzXzXlXlXlXlXlXlXlXlXlXlXlXpXpXpXpXpXpXpXpXwXwXwXwXwX0X0X0X0X0X0X0X0X",
"AXAXAXAXAXAXAXAXNXNXNXNXNXNXNXNXNXNXNXNXNXNXzXzXzXzXzXzXzXzXzXzXlXlXlXlXlXlXlXlXlXlXpXpXpXpXpXpXpXpXpXwXwXwXwXwXwXwX0X0X0X0X0X0X",
"AXAXAXAXAXAXAXAXNXNXAXAXNXNXNXNXNXNXNXNXNXNXzXzXzXzXzXzXzXzXzXzXmXlXlXlXlXlXlXlXlXlXpXpXpXpXpXpXpXpXpXwXwXwXwXwXwXwXwX0X0X0X0X0X",
"AXAXAXAXAXAXAXAXNXNXAXAXNXNXNXNXNXNXNXNXNXNXNXzXzXzXzXzXzXzXzXzXmXmXlXlXlXlXlXlXlXlXlXpXpXpXpXpXpXpXpXwXwXwXwXwXwXwXwXwXwX0X0X0X",
"AXAXAXAXAXAXAXAXNXAXAXAXAXNXNXNXNXNXNXNXNXNXzXzXzXzXzXzXzXzXzXzXmXmXmXlXlXlXlXlXlXlXlXpXpXpXpXpXpXpXpXwXwXwXwXwXwXwXwXwXwX0X0X0X",
"AXAXAXAXAXAXAXNXxXhXcXLXhXbXBXAXMXMXMXMXMXMXMXMXsXBXmXaXtXyXBX>XmXmXpXpXlXlXmXpXpXpXpXpXpXpXpXpXdXfX;XdXBX-X:XwXqXqXqXqXqXqXqXqX",
"AXAXAXAXAXAXAXNXSXgX6XLXvXnXLXbXVXVXVXVXVXVXVXVX1XZXbXvXUXhXgXvXDXBXMXMXMXNXNXMXmXmXmXmXmXmXmXmX:X4X>XaXyXiXJXpXqXwXqXqXqXqXqXqX",
"AXAXAXAXAXAXAXAXZX:X%X.X X.XXX X'.'.'.'.'.'.'.'. XXX.X].|.` z ! '.].].].].].].].'.'.'.'.'.'.'.'. X@X|.~ ^ ' :XrXqXqXqXqXqXqXqXqX",
"AXAXHXHXAXAXAXAXJX,Xn.:.} >.a.1.2.2.2.2.2.2.2.2...e.2.X.O.b   q 4.2.2.2.2.2.2.2.-.-.-.-.-.-.-.-.2.1.$.$ O / xXfXqXqXqXqXqXqXqXqX",
"AXHXHXHXAXAXAXAXhXaX^.j.S.D.(.C.&.&.&.&.&.&.&.&.+.h.n.3.(.r @ l h.h.&.&.&.h.&.&.P.P.P.P./.P.P.P.9.1.K.& < / xX0XqXqXqXqXqXqXqXqX",
"HXHXKXKXAXAXAXAXDXxXA.,.d.>.u.;.t.t.t.t.t.t.t.t.l.x.D.0.R.c . V w.w.q.q.t.t.t.q.9.9.9.9.9.9.9.9._.d.K.& < / cXlXiXqXqXqXqXqXqXqX",
"HXHXKXKXAXAXAXAXFX9XM.;.N.4.).V.s.s.s.s.s.s.s.s.4...b.4.).e X M d.d.7.7.7.d.7.7.d.d.d.d.d.d.d.d.5.7.$.* + _ :X0XiXiXqXqXqXqXqXqX",
"HXKXKXKXKXAXAXAXKXcXj.i.(.f.E...d.d.d.d.d.d.d.d.c.f.!.a.E.q X i Z.d.d.d.d.d.d.d.s.s.s.s.s.s.s.s.k.F.*.% . _ tXfXiXiXiXqXqXqXqXqX",
"KXKXKXKXKXHXHXHXKX,X(.4.2.c.$.J.3.*.C.M.1.&.h.3.z.h.s.i.E.v   g d.5.5.5.5.s.s.5.O.>.r.+.N.1.O.m.&.l.$.& < _ 1X<XqXqXqXqXqXqXqXqX",
"KXKXKXKXKXHXHXHXCX7X[.D.y.c.D.F.c.Y.Y.l.c.W.W.r.F.B.B.t.h.S 5 C F.F.F.F.F.F.F.F.j.c.Y.x._.Y.Y.Y.S.y.#.6 + _ kXtXqXqXqXqXqXqXqXqX",
"KXKXKXKXKXHXHXHXfXaXW R R E P U T R P Y I R R H U I Y R L &   # R P P P P R P P H I Y G Y I U Y H T H - < ) jXeXiXiXqXqXqXqXqXqX",
"KXKXKXKXKXHXHXHXIX<Xw .   O X . . # O X   . . X $ . . # # O O   . . . . . . . . $ . .         X < + + O + _ lXuXiXiXqXqXqXqXqXqX",
"KXKXKXKXKXHXHXHXSX2Xp   d s d 4 $ 7 O 1 X q % X O O < < < < #   < < < O < < < O O O   , & o ; o 4 + # o % ! *X2XiXiXiXqXqXqXqXqX",
"KXKXKXKXKXHXHXHXCX7XL.{ =.@.=.:.H.L.A % Z H.@.[ #.*.@.#. .p.5.| | | | | +.+.| | p 5 B [ H.H.H.] @.H.=. .=.{.kXNXiXiXiXiXqXqXqXqX",
"KXKXKXKXHXHXHXHXBXcX XA.t.l.8.y.G.n.8 X 0 n.V.n.O.y.>.B.1.y.r.N.t.8.8.t.t.t.8.8.X X D n.D.B.Z.c.2.c.7.V.t.$X2XrXiXiXiXiXiXqXqXqX",
"KXKXKXKXHXHXHXHXGX3X!.3.1.l.+.h.5.J.n @ 0 h.0.X.+.c.>.N.X.c.p.n.h.f.f.j.j.j.f.p.f   F /.9.X.+.p.3.`.*.2.,.#X-XBXiXiXiXiXiXqXqXqX",
"KXKXKXKXKXKXKXKXPX&X_.2.+.h.7.q.3.z.w X r w.4.O.8.8.8.8.8.8.8.8.d.a.d.d.d.d.s.5.9   N _.X.Z.d.1.b.4.8.s.1.@X,XkXiXiXiXiXiXiXiXiX",
"KXKXKXKXKXKXKXKXVX3X`.r.h.R.g.e.a.R.i   p i.6.j.d.d.s.s.s.s.s.s.8.7.7.7.7.7.7.3.t   N T.-.I.Y.a.(.r.g.g.:.|.;XfXiXiXiXiXiXiXiXiX",
"KXKXKXKXKXKXKXKXFX1X[.6.O.g.h.d.O.I.u X y I.O.s.t.t.e.e.6.6.6.6.z.z.z.z.g.g.f.a.f @ m (.1.h.f.s.!.2.5.I.7.#XwXfXiXiXiXiXiXiXiXiX",
"KXKXKXKXKXKXKXKXDX3X&.2.X.t.7.8.M.5.7   6 Z.X.2.J.J.J.J.J.J.J.J.%.%.%.%.%.%.%.+..   N d.3.3.5.X.%.;.1.D.4.oX-X-XlXlXiXiXiXiXiXiX",
"KXKXKXKXKXKXKXKXCX8XE.x.S._.I.I._.j.v 5 V /.(.T.q.q.w.w.w.w.w.w.l.l.l.k.l.k.k.e.p = E I.D./.U.A.[.l.g.`.6. XcXuXlXlXlXiXiXiXiXiX",
"KXKXKXKXKXKXKXKXVXaXR S F S B G B S X   2 I D S K K K K K K K K F F F F F F F m + < = S G F S G L S B L S }.eXeXlXlXlXlXiXiXiXiX",
"KXKXKXKXKXKXKXKXPX=Xy   X .   -   . : @ s . X .                 O O O O O O O O o 1 1 $   O       o O 1 . _ dXdXlXlXlXlXlXiXiXiX",
"KXKXKXKXKXKXKXKXJXkXi = : y = , t 5 - % t 5 : t , , , = & & . . * * * * , , & & 8 o 3 5 & 4 t * & q 2 s $ _ lX:XlXlXlXlXlXiXiXiX",
"KXKXKXKXKXKXLXKXAXzXI...U...s.o.o.o.o.o.o.o.o.o.p.X.1.o.I.> O e s.5.5.5.s.5.5.5.o.o.o.o.o.o.o.o.o.6. .  . ( 5XmXlXlXlXlXlXiXiXiX",
"KXKXKXKXKXKXLXLXPXNX/.7.U.X.d.s.d.d.d.d.d.d.d.d.f.M.8.O.T.9 1 n A.d.s.d.d.d.s.d.d.d.d.d.d.d.d.d.7.a.#.X . ( 5XmXlXlXlXlXlXlXiXiX",
"KXKXKXKXKXKXKXKXKXNX/.3.I.O.d.7.d.d.d.d.d.d.d.d.j.M.8.7.T.9 O e A.d.s.d.d.d.d.d.d.d.d.d.d.d.d.d.s.k.#.o $ ( 5XmXlXlXlXlXlXlXlXiX",
"KXKXKXKXKXKXKXKXHXNXI.5.I.X.d.7.a.a.a.a.a.a.a.a.a.M.6.o.T.9 O e j.d.s.d.d.s.s.d.a.a.a.a.a.a.a.a.s.z.#.o $ ) 5XmXlXlXlXlXlXlXlXlX",
"KXKXPXKXKXKXKXKXUXNX).3.I.3.k.d.d.d.d.d.d.d.d.d.f.M.8.7.T.9 < n j.d.8.d.d.d.d.d.d.d.d.d.d.d.d.d.7.a.#.o $ ) 6XmXlXlXlXlXlXlXlXlX",
"KXKXPXKXKXKXKXKXHXxXT.1.j.3.k.7.8.8.8.8.8.8.8.8.a.3.6.5.T.9 < n k.8.6.8.8.8.6.8.8.8.8.8.8.8.8.8.7.a.#.o $ ) 6XmXlXlXlXlXlXlXlXlX",
"KXKXKXKXKXKXKXKXUXxXT.1.g.1.k.8.8.8.8.8.8.8.8.8.g.3.6.5.T.9 O v k.8.6.8.8.8.6.8.8.8.8.8.8.8.8.8.d.z.#.o $ ) 6XmXlXlXlXlXlXlXlXlX",
"KXKXKXKXKXKXKXKXUXbX).4.T.3.k.d.d.d.d.d.d.Z.d.d.x.B.k.s.R.9 < n F.k.d.k.D.k.k.k.d.d.d.d.d.d.d.d.d.x.*.& $ ) 6XmXlXlXlXlXlXlXlXlX",
"KXKXKXPXPXKXKXKXcX1XQ i l V V B Z C y N M B i J K M M C i 7 % % m m m m m m m n n r C n a C Z D Z B k d . _ jX5XlXlXlXlXlXlXlXlX",
"KXKXKXPXPXKXKXKXIXdXy . X   X - .   1 ; 1 &           @ @ @ @ O O O O O @ O O O 3 s 2 + X < < X   . @ < . _ fXVXlXlXlXlXlXlXlXlX",
"KXKXKXPXPXKXKXKXCX0XZ 8 9 w 9 > 8 e O   < v w 8 9 9 9 0 q 9 > 0 9 > 9 9 9 9 > > + < $ v w 6 6 0 0 w 9 q 8 ` rXyXlXlXlXlXlXlXlXlX",
"KXKXKXPXPXKXKXKXLX8X~.h.n.U.K.K.(.$.r 5 i K.K.J.8.6.2.4.4.2.2.2.g.g.g.g.g.g.g.f.> ; G *.b.&.f.&.~.h.K.~. .+XNXMXlXlXlXlXlXlXlXlX",
"KXKXKXPXPXKXKXKXsX9X!.q.3.l.e.l.8.+.w . q C.t.7.U.P.U.I.I.I.I.).C.C.h.C.C.C.h.s.@ X m j.V.j.u.z.v.,.,.F.2.oX5XaXlXlXlXlXlXlXlXlX",
"KXKXKXPXPXPXKXHXKX3XP.>...x.p.6.a.C.r   y d.9.j.8.2.2.2.2.2.2.2.6.6.6.6.6.6.6.5.t O B R.t.S.&.s.J.9.-.d.2.OXxXSXlXlXlXlXlXlXlXlX",
"KXKXKXPXPXKXKXKXLX4XR.<.p.W.p.2.i.x.r O 3 9.>.U.s.s.s.s.s.s.O.O.N.N.3.N.N.N.3.3.8   N l.;.b...2.!.D.s.h.5.OXtXBXzXzXlXlXlXlXlXlX",
"KXKXKXPXPXKXPXKXFX3X(.2. ./.7.q.d.N.9 X x V.2.!.6.6.a.a.k.x.j.d.g.g.g.g.g.z.g.g.3 - e ).1.n.p.0.p.w.e.d.2.oX:XkXzXzXzXlXlXlXlXlX",
"IXIXIXIXIXKXKXKXhX7X~.;.l.e.x.:.1.n.n s g &.0.*.8.8.8.8.8.8.8.t.4.4.4.8.8.8.8.8.f   n W.<.n.m.A.p.d.y.9.} #XtXgXzXzXzXzXzXlXlXlX",
"IXIXIXIXIXKXKXKXGX7X^.1.q...Z.D.F.3.c   w d.w.C.J.J.J.J.J.J.&.&.&.&.&.J.J.J.J.J.7 X F _.,.B.X.r.D.t.9.9.} @X4XDXzXzXzXzXzXzXlXlX",
"IXIXIXIXIXKXKXKXcX7X~./.`.J.J.&.!.$.b # J $.O.^.t.8.t.t.t.t.t.t.4.4.4.4.4.8.8.8.* ; D K.@.!.!.U.$.K.K.].!.+X4X-XzXzXzXzXzXzXzXlX",
"IXIXIXIXIXKXKXKXPXbXa 6 w w M n c n . < O b b a u u u u u u u u u u u u u u u u < X X M c e e A m M 5 r 6 ` HXSXzXzXzXzXzXzXzXzX",
"IXIXIXIXIXIXIXIXFX;X4   O O     O + < s < . . O   . . . .     .         .       2 O O # .     O . O < < O _ SXfXzXzXzXzXzXzXzXzX",
"IXIXIXIXIXIXIXIXIX:X` l l l l l k k k j k l k j h h h h h h h h h h h h h j j j i y k h k j j j k z j j k ' HXNXzXzXzXzXzXzXzXzX",
"IXIXIXIXIXKXKXKXbXUXaXvXnXnXvXvXIXbXbXnXnXJXUXnXHXHXHXHXHXHXHXHXbXbXHXHXHXHXHXHXJXnXJXJXHXbXxXkXxXHXKXJX:X:XJX-XzXzXzXzXzXzXzXzX",
"IXIXIXIXIXKXKXKXLXKXIXIXJXJXIXPXFXSXFXPXAXSXFXvXLXLXLXLXLXLXLXLXHXHXHXHXHXHXHXKXhXMXMXSXDXBXNXAXFXfXfXKXxXbXKXfXzXzXzXzXzXzXzXzX",
"IXIXIXIXIXIXIXIXKXKXKXKXKXKXKXPXKXKXKXKXKXKXKXKXKXKXKXKXKXKXKXKXHXHXHXHXHXHXHXHXAXAXAXNXNXNXNXNXNXNXNXNXNXNXNXNXNXNXNXzXzXzXzXzX",
"IXIXIXIXIXIXIXIXKXKXKXKXKXKXKXPXKXKXKXKXKXKXKXKXKXKXKXKXKXKXKXKXHXHXHXHXHXHXHXHXAXAXAXNXNXNXNXNXNXNXNXNXNXNXNXNXNXNXzXzXzXzXzXzX",
"IXIXIXIXIXIXIXIXKXKXKXKXKXKXKXKXKXKXKXKXKXKXHXHXKXKXKXKXKXKXKXKXHXHXHXHXHXHXHXHXAXAXAXAXHXAXNXNXNXNXNXNXNXNXNXNXzXzXzXzXzXzXzXzX",
"IXIXIXIXIXIXIXIXKXKXKXKXKXKXKXKXKXKXKXKXKXKXKXKXHXHXHXHXHXHXHXHXHXHXHXHXHXHXHXHXHXHXAXAXHXNXNXNXNXNXNXNXNXNXNXNXNXNXzXzXNXzXzXzX",
"IXIXIXIXIXIXIXIXKXKXKXKXKXKXKXKXKXKXHXHXHXKXKXKXHXHXHXHXHXHXHXHXHXHXHXHXHXHXHXHXHXHXHXNXNXNXNXNXNXNXNXNXNXNXNXNXNXNXNXNXNXNXzXzX",
"KXKXKXKXIXIXKXKXKXKXKXKXKXKXPXPXKXKXHXHXKXKXKXKXHXHXKXKXKXKXKXKXKXKXHXKXHXHXKXKXHXHXHXHXNXNXAXNXNXNXNXNXNXNXNXNXNXNXNXNXNXNXzXzX",
"KXKXKXKXIXIXKXKXKXKXPXKXKXKXKXPXKXKXKXKXKXKXKXKXHXHXKXKXKXKXKXKXKXKXKXKXHXHXHXKXHXHXHXHXHXNXNXNXNXNXNXNXNXNXNXNXNXNXNXNXNXNXNXzX",
"KXKXKXKXIXIXKXKXKXPXKXKXKXKXPXPXKXKXKXKXKXKXKXKXHXHXKXKXKXKXKXKXKXKXKXKXHXHXKXKXHXHXHXHXHXNXNXNXNXNXNXNXNXNXNXNXNXNXNXNXNXNXNXzX"
};
