/* XPM */
static char *_750c4d158604f94ed03ada7b79116d1abM87aPl0kFXhaz1[] = {
/* columns rows colors chars-per-pixel */
"64 64 79 1 ",
"  c #E45E10",
". c #E35D0E",
"X c #E56B23",
"o c #EEC29C",
"O c #F0D0B1",
"+ c #F0D0B0",
"@ c #F1D1B1",
"# c #D3B69A",
"$ c #1C1915",
"% c black",
"& c #1B0B01",
"* c #C8520E",
"= c #E55E10",
"- c #E35C0D",
"; c #E56B22",
": c #EEC29D",
"> c #F0D1B2",
", c #F1D2B2",
"< c #D3B79B",
"1 c #C8510C",
"2 c #E55D0E",
"3 c #EEC39D",
"4 c #E76C23",
"5 c #E67631",
"6 c #EDB78E",
"7 c #F0C39D",
"8 c #D1AA89",
"9 c #1C1712",
"0 c #1B0C04",
"q c #C95E1F",
"w c #E9B48B",
"e c #CD601F",
"r c #331605",
"t c #190A01",
"y c #E35D10",
"u c #EBC09C",
"i c #CD6121",
"p c #CB540E",
"a c #E05C0F",
"s c #D6B89B",
"d c #352316",
"f c #190900",
"g c #331503",
"h c #CA530E",
"j c #E75F10",
"k c #180901",
"l c #B0480C",
"z c #C9530E",
"x c #B34A0C",
"c c #301303",
"v c #1A0A01",
"b c #030100",
"n c #1B1815",
"m c #312014",
"M c #B34B0E",
"N c #D2B69A",
"B c #D4B89B",
"V c #BCA288",
"C c #1A0900",
"Z c #F3D3B2",
"A c #1D1915",
"S c #F0CFAF",
"D c #EFCEAD",
"F c #EEC39F",
"G c #E67734",
"H c #E56A22",
"J c #1B1714",
"K c #362D25",
"L c #D5AD8C",
"P c #EDB68B",
"I c #E56A20",
"U c #D2B79B",
"Y c #E37431",
"T c #E45F12",
"R c #E35D0F",
"E c #191612",
"W c #030302",
"Q c #B9A088",
"! c white",
/* pixels */
"  .XoO++++++++++++++++++++++++++++@#$%%&*=.XoO++++++++++++OoX.  ",
"  .XoO++++++++++++++++++++++++++++@#$%%&*=.XoO++++++++++++OoX.  ",
"..-;:>OOOOOOOOOOOOOOOOOOOOOOOOOOOO,<$%%&12-;:>OOOOOOOOOOOO>342==",
"XX;56:oooooooooooooooooooooooooooo789%%0q4;56:oooooooooooo3we1**",
"oo:65;XXXXXXXXXXXXXXXXXXXXXXXXXXXX4q0%%987:65;XXXXXXXXXXXX4ert&&",
"OO>:;-............................21&%%$<,>:;-............21&%%%",
"++OoX.                            =*&%%$#@OoX.            =*&%%%",
"++OoX.                            =*&%%$#@OoX.            =*&%%%",
"++OoX.                            =*&%%$#@OoX.            =*&%%%",
"++OoX.                            =*&%%$#@OoX.            =*&%%%",
"++OoX.                            =*&%%$#@OoX.            =*&%%%",
"++OoX.                            =*&%%$#@OoX.            =*&%%%",
"++OoX.                            =*&%%$#@OoX.            =*&%%%",
"++OoX.                            =*&%%$#@OoX.            =*&%%%",
"++OoX.                            =*&%%$#@Oo42== y        =*&%%%",
"++OoX.                            =*&%%$#@Oui1*pa         =*&%%%",
"++OoX.                            =*&%%$#@@sdftgp=        =*&%%%",
"++OoX.                            =*&%%$#@@#$%%&*=        =*&%%%",
"++OoX.                            =*&%%$<,,<$%%&hj========jh&%%%",
"++OoX.                            =*&%%987789%%klh********zxcv&&",
"++OoX.                            =*&%%0q44q0%%bk&&&&&&&&&vcxz**",
"++OoX.                            =*&%%&1221&%%%%%%%%%%%%%%&hj==",
"++OoX.                            =*&%%&1221&%%%%%%%%%%%%%%&hj==",
"++OoX.                            =*&%%0q44idn$$$$$$$$$$$$nmMz**",
"++OoX.                            =*&%%987ousN############BVmC&&",
"++OoX.                            =*&%%$<,OO@@@@@@@@@@@@@@ZBA%%%",
"++OoX.                            =*&%%$#@S+OOOOOOOOOOOOOO,<$%%%",
"++OoX.                            =*&%%$#@+DFooooooooooooo789%%%",
"++OoX.                            =*&%%$#@OFGHXXXXXXXXXXXX4q0%%%",
"++OoX.                            =*&%%$#@OoH-............21&%%%",
"++OoX.                            =*&%%$#@OoX.            =*&%%%",
"++OoX.                            =*&%%$#@OoX.            =*&%%%",
"++OoX.                            =*&%%$#@OoX.            =*&%%%",
"++OoX.                            =*&%%$#@OoX.            =*&%%%",
"++OoX.                            =*&%%$#@OoX.            =*&%%%",
"++OoX.                            =*&%%$#@OoX.            =*&%%%",
"++OoX.                            =*&%%$#@OoX.            =*&%%%",
"++OoX.                            =*&%%$#@OoX.            =*&%%%",
"@@,742== y                    y ==jh&%%$<,>3X.            =*&%%%",
"##<8q1*pa                      ap*zMmnJKL73PI.            =*&%%%",
"$$$90&tgp=                    =pgtCmVBULY;XITR            =*&%%%",
"%%%%%%%&*=                    =*&%%ABZ,7;-..R             =*&%%%",
"%%%%%%%&hj====== y            =*&%%$#@OoX.                =*&%%%",
"$$$$$$nmMz*****pa             =*&%%$#@OoX.                =*&%%%",
"######BVmC&&&&tgp=            =*&%%$#@OoX.                =*&%%%",
"@@@@@@ZBA%%%%%%&*=            =*&%%$#@OoX.                =*&%%%",
"++S+OO,<$%%%%%%&hj============jh&%%$<,>3X.                =*&%%%",
"+++DFo7LKJ$$$$nmMz************zMmnJKL73PI.                =*&%%%",
"++OFGH;YLU####BVmC&&&&&&&&&&&&CmVBULY;XITR                =*&%%%",
"++OoH--;7,@@@@ZBA%%%%%%%%%%%%%%ABZ,7;-..R                 =*&%%%",
"++OoX..X3>OOOO,<$%%%%%%%%%%%%%%$#@OoX.                    =*&%%%",
"++OoX..IP3oooo7LKJ$$$$$$$$AEW%%$#@OoX.                    =*&%%%",
"++OoX.RTIXXXXX;YLU########BQE%%$#@OoX.                    =*&%%%",
"++OoX. R......-;7,@@@@@@@@ZBA%%$#@OoX.                    =*&%%%",
"++OoX.        .X3>OOOOOOOO,<$%%$#@OoX.                y ==jh&%%%",
"++OoX.        .IP3oooooooo789%%$#@OoX.                 ap*hlk%%%",
"++OoX.        RTIXXXXXXXXX4q0%%$#@OoX.                =pgt&kb%%%",
"++OoX.         R..........21&%%$#@OoX.                =*&%%%%%%%",
"OO>342====================jh&%%$#@Oo42================jh&%%%%%%%",
"oo3we1********************zxcvfds@Oui1****************hlk%%bk&&&",
"XX4ert&&&&&&&&&&&&&&&&&&&&vcxz1iuO@sdf&&&&&&&&&&&&&&&&&kb%%klh**",
"..21&%%%%%%%%%%%%%%%%%%%%%%&hj24oO@#$%%%%%%%%%%%%%%%%%%%%%%&hj==",
"  =*&%%%%%%%%%%%%%%%%%%%%%%&*=.XoO@#$%%%%%%%%%%%%%%%%%%%%%%&*=  ",
"  =*&%%%%%%%%%%%%%%%%%%%%%%&*=.XoO@#$%%%%%%%%%%%%%%%%%%%%%%&*=  "
};
